<svg width="16" height="10" viewBox="0 0 16 10" fill="none" xmlns="http://www.w3.org/2000/svg">
<path d="M8 0C4.66667 0 1.82001 2.07333 0.666672 5C1.82001 7.92667 4.66667 10 8 10C11.3333 10 14.18 7.92667 15.3333 5C14.18 2.07333 11.3333 0 8 0ZM8 8.33333C6.16 8.33333 4.66667 6.84 4.66667 5C4.66667 3.16 6.16 1.66667 8 1.66667C9.84 1.66667 11.3333 3.16 11.3333 5C11.3333 6.84 9.84 8.33333 8 8.33333ZM8 3C6.89334 3 6 3.89333 6 5C6 6.10667 6.89334 7 8 7C9.10667 7 10 6.10667 10 5C10 3.89333 9.10667 3 8 3Z" fill="#888888"/>
</svg>
